# xmcd
# 
# Track frame offsets:
#     150
#     33492
#     65652
#     91492
#     122055
#     151022
# 
# Disc length: 2472
# 
# Revision: 1
# Processed by: cddbd v1.5.2PL0 Copyright (c) Steve Scherf et al.
# Submitted via: BonkEnc v1.0.6
# 
DISCID=4709a606
DTITLE=Donald Byrd - The Cat Walk
DYEAR=1961
DGENRE=Jazz
TTITLE0=Say You're Mine
TTITLE1=Duke's Mixture
TTITLE2=Each Time I Think Of You
TTITLE3=The Cat Walk
TTITLE4=Cute
TTITLE5=Hello Bright Sunflower
EXTD=
EXTT0=
EXTT1=
EXTT2=
EXTT3=
EXTT4=
EXTT5=
PLAYORDER=
